<?xml version="1.0" encoding="UTF-8"?>
<svg enable-background="new 0 0 421.1 119.2" version="1.1" viewBox="0 0 421.1 119.2" xml:space="preserve" xmlns="http://www.w3.org/2000/svg">
<style type="text/css">
	.st0{fill:#22224C;}
</style>

	
		<path class="st0" d="m105.7 55.1c-0.1 1.5 0.3 3 1.2 4.3 0.7 0.9 1.6 1.5 2.7 1.9h-12c1.1-0.3 2.1-1 2.8-1.9 0.8-1.3 1.2-2.8 1.1-4.4v-47.9c0.1-1.6-0.3-3.1-1.1-4.4-0.7-0.9-1.7-1.6-2.8-1.9h12c-1.1 0.3-2.1 1-2.8 1.9-0.9 1.3-1.2 2.8-1.1 4.4v48z"/>
		<path class="st0" d="m169.6 0.8c-0.6 0.2-1.2 0.4-1.7 0.7-0.6 0.3-1.2 0.7-1.7 1.2s-1 1.1-1.3 1.8c-0.4 0.8-0.5 1.7-0.5 2.5v54.3l-39.8-57.5h-0.1v51.2c0 0.9 0.2 1.8 0.6 2.5 0.3 0.7 0.8 1.3 1.3 1.8s1.1 0.9 1.7 1.2 1.1 0.5 1.7 0.7h-11.6c0.6-0.2 1.2-0.4 1.7-0.7 0.6-0.3 1.2-0.7 1.7-1.2s1-1.1 1.3-1.8c0.4-0.8 0.6-1.7 0.6-2.5v-48c0-0.9-0.2-1.8-0.5-2.7-0.3-0.7-0.7-1.3-1.3-1.8-0.5-0.5-1.1-0.8-1.7-1.1s-1.1-0.5-1.7-0.7h9.4l35.5 51.1v-44.8c0-0.9-0.2-1.8-0.6-2.6-0.3-0.7-0.8-1.3-1.3-1.8s-1.1-0.9-1.7-1.2-1.1-0.5-1.7-0.7l11.7 0.1z"/>
		<path class="st0" d="m232.2 38.9c-0.9 1.3-1.3 2.8-1.2 4.3v18.5l-2.2-3.4c-0.5-0.7-1.3-1.2-2.1-1.5-0.9-0.2-1.8-0.1-2.6 0.3-2.4 1.3-5 2.3-7.6 3.1-2.5 0.8-5.1 1.2-7.6 1.2-4.1 0-8.1-0.8-11.9-2.4-7.3-3.1-13.2-8.9-16.2-16.2-1.6-3.8-2.4-7.8-2.4-11.9s0.8-8.1 2.4-11.9c3.1-7.3 8.9-13.2 16.2-16.2 3.8-1.6 7.8-2.4 11.9-2.4 1.9 0 3.8 0.1 5.7 0.4 1.8 0.2 3.6 0.6 5.4 1.1 1.7 0.5 3.3 1.1 4.8 1.8 1.4 0.7 2.7 1.5 3.9 2.5v7.4c-1.4-2-3.1-3.9-4.9-5.6-1.8-1.6-3.8-3-5.9-4.1s-4.4-1.8-6.7-2.2-4.7-0.4-7 0c-3.4 0.6-6.6 1.9-9.4 4s-5.1 4.7-6.9 7.7c-1.9 3.1-3.2 6.6-3.8 10.2-0.8 3.8-0.8 7.7-0.1 11.5 0.6 3.8 1.9 7.4 3.8 10.8 1.8 3.2 4.1 6 6.9 8.4 2.6 2.2 5.7 3.9 9 5 3.3 1 6.7 1.3 10.1 0.7 1.8-0.3 3.5-0.9 5.1-1.8 1.7-0.9 3.4-2 4.9-3.3 2-1.5 3.2-3.9 3.1-6.4v-5.2c0.1-1.5-0.3-3.1-1.1-4.4-0.7-0.9-1.7-1.6-2.8-1.9h12c-1.2 0.4-2.2 1.1-2.8 1.9z"/>
		<path class="st0" d="m281.3 61.3-15.7-23.8h-13.9v17.6c-0.1 1.5 0.3 3 1.2 4.3 0.7 0.9 1.6 1.5 2.7 1.9h-12c1.1-0.3 2.1-1 2.8-1.9 0.8-1.3 1.2-2.8 1.1-4.4v-47.9c0.1-1.6-0.3-3.1-1.1-4.4-0.7-0.9-1.7-1.6-2.8-1.9h20c3.7-0.1 7.4 0.5 10.9 1.6 2.7 0.9 5.1 2.4 7.1 4.3 1.7 1.6 3.1 3.7 3.9 5.9 0.8 2.1 1.2 4.3 1.2 6.6 0 1.8-0.3 3.6-0.9 5.4-0.6 1.9-1.6 3.7-2.8 5.2-1.4 1.8-3.1 3.3-5.1 4.4-2.4 1.4-4.9 2.4-7.6 2.8l13.3 20.2c0.6 1 1.5 1.8 2.5 2.5 1 0.6 2 1.2 3.1 1.6h-7.9zm-17.6-24.8c2.4 0 4.8-0.3 7.1-1.1 2.1-0.7 4-1.8 5.7-3.3 1.6-1.5 2.9-3.4 3.8-5.4 0.9-2.4 1.4-4.9 1.3-7.5 0-2.3-0.4-4.5-1.1-6.7-0.7-2-1.9-3.9-3.3-5.5-1.6-1.6-3.5-2.9-5.6-3.8-2.5-1-5.2-1.4-7.9-1.4h-12v34.7h12z"/>
		<path class="st0" d="m340.8 54.9c1.3 3.6 3 5.7 5.3 6.4h-12.6c1.2-0.4 2.1-1.2 2.7-2.3 0.7-1.2 0.8-2.7 0.3-4l-6.6-18h-22l-5.9 15.4c-0.6 1.3-0.8 2.7-0.7 4.1 0.2 1.8 1.3 3.3 2.9 4 0.6 0.3 1.2 0.6 1.9 0.8h-12.1c1.2-0.4 2.2-1.1 3.1-2.1 1.1-1.2 2-2.6 2.6-4.1l20.8-55.1 20.3 54.9zm-11.5-18.9-10.6-28.4-10.7 28.4h21.3z"/>
		<path class="st0" d="m417.2 55c-0.1 1.5 0.3 3.1 1.1 4.4 0.7 0.9 1.7 1.5 2.8 1.9h-12c1.1-0.3 2-1 2.8-1.9 0.9-1.3 1.2-2.8 1.1-4.4v-51.5l-24.4 57.7-27.4-57.3v51.1c0 0.9 0.2 1.8 0.6 2.6 0.3 0.7 0.8 1.3 1.4 1.8 0.5 0.5 1.2 0.8 1.8 1.1 0.7 0.3 1.3 0.5 1.8 0.7h-12c0.5-0.2 1.1-0.4 1.8-0.7s1.3-0.7 1.8-1.2c0.6-0.5 1-1.1 1.4-1.8 0.4-0.8 0.6-1.7 0.6-2.6v-47.8c0-0.9-0.2-1.8-0.6-2.7-0.3-0.7-0.8-1.3-1.4-1.8s-1.2-0.8-1.8-1.1c-0.7-0.3-1.3-0.5-1.8-0.7h9.7l25.9 53.7 22.6-53.7h8.1c-1.1 0.3-2.1 1-2.8 1.9-0.9 1.3-1.3 2.8-1.1 4.4v47.9z"/>
		<path class="st0" d="m377.9 103.8c0.9 0 1.8 0.1 2.7 0.4 0.7 0.2 1.3 0.6 1.8 1.1 0.4 0.4 0.8 0.9 1 1.5 0.2 0.5 0.3 1.1 0.3 1.7 0 0.5-0.1 1.1-0.3 1.6-0.2 0.6-0.6 1.1-1 1.5-0.5 0.5-1.1 0.9-1.8 1.1-0.9 0.3-1.8 0.5-2.7 0.4h-3v4.4c0 0.4 0.1 0.8 0.3 1.1 0.2 0.2 0.4 0.4 0.7 0.5h-3c0.3-0.1 0.5-0.2 0.7-0.5s0.3-0.7 0.3-1.1v-12.1c0-0.4-0.1-0.8-0.3-1.1-0.2-0.2-0.4-0.4-0.7-0.5h5zm0 9c0.7 0 1.4-0.1 2-0.3 0.5-0.2 1-0.6 1.4-1s0.7-0.9 0.8-1.4c0.4-1.1 0.4-2.3 0-3.4-0.2-0.5-0.5-1-0.8-1.4-0.4-0.4-0.9-0.8-1.4-1-0.6-0.2-1.3-0.4-2-0.3h-3v8.8h3z"/>
		<path class="st0" d="m392.4 118.8c0.4 0 0.8-0.1 1.2-0.2 0.3-0.1 0.6-0.3 0.9-0.5 0.2-0.2 0.4-0.4 0.6-0.7 0.1-0.2 0.3-0.4 0.3-0.6l-0.5 2.3h-8.9c0.3-0.1 0.5-0.3 0.7-0.5 0.2-0.3 0.3-0.7 0.3-1.1v-12.1c0-0.4-0.1-0.8-0.3-1.1-0.2-0.2-0.4-0.4-0.7-0.5h3c-0.3 0.1-0.5 0.3-0.7 0.5-0.2 0.3-0.3 0.7-0.3 1.1v13.5h4.4z"/>
		<path class="st0" d="m403.7 118.8c0.4 0 0.8-0.1 1.2-0.2 0.3-0.1 0.6-0.3 0.9-0.5 0.2-0.2 0.4-0.4 0.6-0.7 0.1-0.2 0.3-0.4 0.3-0.6l-0.5 2.3h-8.9c0.3-0.1 0.5-0.3 0.7-0.5 0.2-0.3 0.3-0.7 0.3-1.1v-12.1c0-0.4-0.1-0.8-0.3-1.1-0.2-0.2-0.4-0.4-0.7-0.5h3c-0.3 0.1-0.5 0.2-0.7 0.5s-0.3 0.7-0.3 1.1v13.5h4.4z"/>
		<path class="st0" d="m421.1 116.9c-0.4 0.3-0.8 0.6-1.2 0.8-0.5 0.3-0.9 0.5-1.4 0.7l-1.5 0.6c-0.5 0.1-1 0.2-1.5 0.2-1 0-2.1-0.2-3-0.6s-1.7-1-2.4-1.7-1.3-1.5-1.6-2.5c-0.4-1-0.6-2-0.6-3s0.2-2 0.6-3c0.4-0.9 0.9-1.8 1.6-2.5s1.5-1.3 2.4-1.7 2-0.6 3-0.6c0.5 0 0.9 0 1.4 0.1s0.9 0.2 1.4 0.3c0.4 0.1 0.8 0.3 1.2 0.5s0.7 0.4 1 0.6v1.8c-0.4-0.5-0.8-1-1.2-1.4s-0.9-0.7-1.5-1c-0.5-0.3-1.1-0.5-1.7-0.6s-1.2-0.1-1.8 0c-0.9 0.1-1.7 0.5-2.4 1s-1.3 1.2-1.7 1.9c-1 1.7-1.3 3.6-1 5.5 0.2 1 0.5 1.9 1 2.8 0.4 0.8 1 1.5 1.7 2.1s1.4 1 2.2 1.3 1.7 0.3 2.5 0.2c0.4-0.1 0.8-0.2 1.2-0.4s0.8-0.4 1.1-0.7c0.4-0.3 0.7-0.6 1-0.9s0.6-0.7 0.8-1l0.4 1.2z"/>
		<path class="st0" d="m119.4 92.4c-0.6 0.5-1.3 1-1.9 1.4-0.7 0.5-1.5 0.9-2.3 1.2s-1.6 0.6-2.5 0.9c-0.8 0.2-1.6 0.3-2.4 0.3-1.7 0-3.4-0.3-4.9-1-1.5-0.6-2.9-1.6-4-2.7-1.2-1.2-2.1-2.6-2.7-4.1-1.3-3.2-1.3-6.8 0-10 0.6-1.5 1.6-2.9 2.7-4.1s2.5-2.1 4-2.7c1.6-0.7 3.2-1 4.9-1 0.8 0 1.6 0.1 2.3 0.2 0.8 0.1 1.5 0.3 2.2 0.5s1.4 0.4 2 0.8c0.6 0.3 1.1 0.6 1.6 1v2.9c-0.6-0.9-1.2-1.6-2-2.3s-1.6-1.2-2.5-1.7c-0.9-0.4-1.8-0.8-2.8-0.9-1-0.2-1.9-0.2-2.9 0-1.4 0.2-2.7 0.8-3.9 1.7s-2.1 2-2.9 3.3-1.3 2.8-1.6 4.3c-0.3 1.6-0.3 3.2 0 4.8s0.8 3.1 1.6 4.6c0.7 1.3 1.7 2.5 2.8 3.5 1.1 0.9 2.4 1.6 3.7 2 1.4 0.4 2.8 0.5 4.2 0.3 0.7-0.1 1.4-0.3 2-0.7 0.7-0.3 1.3-0.7 1.9-1.2s1.2-1 1.7-1.5 0.9-1 1.3-1.6l0.4 1.8z"/>
		<path class="st0" d="m134.6 70.5c1.7 0 3.4 0.3 4.9 1 1.5 0.6 2.9 1.6 4 2.7 1.1 1.2 2.1 2.6 2.7 4.1 2 4.8 0.9 10.4-2.7 14.1-1.1 1.2-2.5 2.1-4 2.7-3.1 1.3-6.7 1.3-9.8 0-1.5-0.6-2.9-1.6-4-2.7-5-5-5-13.2 0-18.2 1.1-1.1 2.5-2 4-2.7s3.2-1 4.9-1zm2.1 25.2c1.4-0.2 2.7-0.8 3.9-1.7 1.1-0.9 2.1-2 2.8-3.3 1.6-2.8 2.1-6 1.6-9.2-0.3-1.6-0.8-3.1-1.6-4.5-0.7-1.3-1.7-2.5-2.9-3.5-1.1-0.9-2.4-1.7-3.7-2.1s-2.8-0.6-4.2-0.3c-1.4 0.2-2.7 0.8-3.9 1.7s-2.1 2-2.9 3.2c-0.8 1.3-1.3 2.8-1.6 4.3-0.3 1.6-0.3 3.3 0 4.9s0.8 3.2 1.6 4.6c0.7 1.3 1.7 2.6 2.9 3.6 1.1 1 2.4 1.7 3.7 2.2 1.4 0.3 2.9 0.4 4.3 0.1z"/>
		<path class="st0" d="m158.1 70.4c-0.8 0-1.5 0-2.3 0.2-0.7 0.2-1.4 0.4-2 0.8-1.3 0.8-2.1 2.3-2.1 3.8-0.1 1 0.3 2.1 1 2.9 0.8 0.8 1.7 1.5 2.6 2.1 1.1 0.7 2.3 1.2 3.4 1.8 1.2 0.6 2.4 1.2 3.5 2 1 0.7 1.9 1.6 2.6 2.6 0.7 1.1 1.1 2.3 1 3.6 0 0.9-0.3 1.9-0.8 2.7s-1.1 1.5-1.9 2-1.6 0.9-2.6 1.2c-1.6 0.5-3.3 0.5-4.9 0.1-0.6-0.1-1.2-0.3-1.8-0.5s-1-0.4-1.4-0.5c-0.3-0.1-0.7-0.2-1.1-0.3-0.4 0-0.8 0.1-1.1 0.3s-0.6 0.5-0.7 0.8v-3.3s0-2.2 0-3.3c0.6 1.8 1.6 3.5 3.1 4.8 1.4 1.2 3.1 1.8 4.9 1.8 0.8 0 1.6 0 2.4-0.2s1.5-0.4 2.2-0.8c0.6-0.4 1.2-0.9 1.6-1.6s0.7-1.6 0.7-2.4c0-1-0.3-2.1-1-2.8-0.8-0.8-1.6-1.5-2.6-2.1-1.1-0.6-2.2-1.2-3.4-1.8-1.2-0.5-2.4-1.1-3.5-1.9-1-0.7-1.9-1.5-2.6-2.5s-1.1-2.2-1-3.5c0-1 0.2-1.9 0.6-2.8 0.4-0.8 0.9-1.5 1.6-2s1.5-0.9 2.3-1.2c0.9-0.3 1.8-0.4 2.8-0.3 1 0 1.9 0.2 2.8 0.5s1.7 0.7 2.4 1.2c0.2 0.2 0.5 0.3 0.9 0.3s0.8-0.1 1-0.4c0.3-0.3 0.5-0.7 0.6-1.1v2.8s0 1.9 0 2.8c-0.2-0.8-0.6-1.6-1.1-2.2-0.5-0.7-1-1.3-1.7-1.8-0.6-0.5-1.4-0.9-2.1-1.2-0.7-0.4-1.5-0.5-2.3-0.6z"/>
		<path class="st0" d="m194 93.4c-0.1 0.6 0.1 1.3 0.5 1.8 0.3 0.4 0.7 0.6 1.1 0.8h-5c0.4-0.1 0.8-0.4 1.1-0.8 0.4-0.5 0.5-1.2 0.5-1.8v-21.7l-10.1 24.3-11.3-24.1v21.5c0 0.4 0.1 0.8 0.2 1.1s0.3 0.5 0.6 0.8c0.2 0.2 0.5 0.4 0.8 0.5s0.5 0.2 0.7 0.3h-5c0.2-0.1 0.5-0.2 0.7-0.3 0.3-0.1 0.5-0.3 0.8-0.5 0.2-0.2 0.4-0.5 0.6-0.8s0.2-0.7 0.2-1.1v-20.2c0-0.7-0.3-1.4-0.8-1.9-0.2-0.2-0.5-0.3-0.8-0.5-0.3-0.1-0.5-0.2-0.7-0.3h4l10.8 22.6 9.4-22.6h3.4c-0.5 0.1-0.9 0.4-1.1 0.8-0.4 0.6-0.5 1.2-0.5 1.8l-0.1 20.3z"/>
		<path class="st0" d="m208.8 95.6c0.7 0 1.4-0.1 2-0.4 0.5-0.2 1-0.5 1.4-0.9 0.4-0.3 0.7-0.7 0.9-1.1s0.4-0.7 0.6-1l-0.9 3.7h-14.8c0.5-0.1 0.9-0.4 1.1-0.8 0.4-0.5 0.5-1.2 0.5-1.8v-20.1c0.1-0.7-0.1-1.3-0.5-1.8-0.3-0.4-0.7-0.7-1.1-0.8h14.7l0.9 3.7c-0.1-0.3-0.3-0.6-0.6-1s-0.6-0.8-0.9-1.1c-0.4-0.4-0.9-0.7-1.4-0.9-0.6-0.3-1.3-0.4-2-0.4h-7.4v11.9h5.3c0.6 0.1 1.3-0.1 1.8-0.5 0.4-0.3 0.6-0.7 0.8-1.2v3.9c-0.1-0.5-0.4-0.9-0.8-1.2-0.5-0.4-1.2-0.5-1.8-0.5h-5.3v12.2h7.5z"/>
		<path class="st0" d="m235.3 74.3c-0.1-0.3-0.3-0.6-0.6-1-0.6-0.9-1.4-1.6-2.4-2-0.6-0.3-1.3-0.4-2-0.4h-3.8v22.5c-0.1 0.6 0.1 1.3 0.5 1.8 0.3 0.4 0.7 0.6 1.1 0.8h-5c0.5-0.1 0.9-0.4 1.1-0.8 0.4-0.6 0.5-1.2 0.5-1.9v-22.3h-3.7c-0.7 0-1.4 0.1-2 0.4-1 0.4-1.8 1.1-2.4 2-0.2 0.4-0.4 0.7-0.6 1l0.9-3.7h17.2l1.2 3.6z"/>
		<path class="st0" d="m241.2 93.4c0 0.6 0.1 1.3 0.5 1.8 0.3 0.4 0.7 0.6 1.1 0.8h-5c0.5-0.1 0.9-0.4 1.1-0.8 0.4-0.5 0.5-1.2 0.5-1.8v-20.2c0-0.7-0.1-1.3-0.5-1.8-0.3-0.4-0.7-0.7-1.1-0.8h5c-0.5 0.1-0.9 0.4-1.1 0.8-0.4 0.5-0.5 1.2-0.5 1.8v20.2z"/>
		<path class="st0" d="m267.2 92.4c-0.6 0.5-1.3 1-1.9 1.4-0.7 0.5-1.5 0.9-2.3 1.2s-1.6 0.6-2.5 0.9c-0.8 0.2-1.6 0.3-2.5 0.3-1.7 0-3.4-0.3-4.9-1-1.5-0.6-2.9-1.6-4-2.7-1.2-1.2-2.1-2.6-2.7-4.1-1.3-3.2-1.3-6.8 0-10 0.6-1.5 1.6-2.9 2.7-4.1s2.5-2.1 4-2.7c1.6-0.7 3.2-1 4.9-1 0.8 0 1.6 0.1 2.3 0.2 0.8 0.1 1.5 0.3 2.2 0.5s1.4 0.4 2 0.8c0.6 0.3 1.1 0.6 1.6 1v2.9c-0.6-0.9-1.2-1.6-2-2.3s-1.6-1.2-2.5-1.7c-0.9-0.4-1.8-0.8-2.8-0.9-1-0.2-1.9-0.2-2.9 0-1.4 0.2-2.7 0.8-3.9 1.7s-2.1 2-2.9 3.3-1.3 2.8-1.6 4.3c-0.3 1.6-0.3 3.2 0 4.8s0.8 3.1 1.6 4.6c0.7 1.3 1.6 2.5 2.8 3.5 1.1 0.9 2.4 1.7 3.7 2.1 1.4 0.4 2.8 0.5 4.2 0.3 0.7-0.1 1.3-0.3 2-0.7 0.7-0.3 1.3-0.7 1.9-1.2s1.2-1 1.7-1.5 0.9-1 1.4-1.6l0.4 1.7z"/>
		<path class="st0" d="m285.9 70.4c-0.8 0-1.5 0-2.3 0.2-0.7 0.2-1.4 0.4-2 0.8-1.3 0.8-2.1 2.3-2.1 3.8-0.1 1 0.3 2.1 1 2.9 0.8 0.8 1.7 1.5 2.6 2.1 1.1 0.7 2.3 1.2 3.4 1.8 1.2 0.6 2.3 1.2 3.4 2 1 0.7 1.9 1.6 2.6 2.6 0.7 1.1 1.1 2.3 1 3.6 0 0.9-0.3 1.9-0.8 2.7s-1.1 1.5-1.9 2-1.6 0.9-2.5 1.2c-1.6 0.5-3.3 0.5-4.9 0.1-0.6-0.1-1.2-0.3-1.8-0.5-0.5-0.2-1-0.4-1.5-0.5-0.3-0.1-0.7-0.2-1-0.3-0.4 0-0.8 0.1-1.1 0.3s-0.6 0.5-0.7 0.8v-3.3s0-2.2 0-3.3c0.5 1.9 1.6 3.5 3 4.8 1.4 1.2 3.2 1.8 5 1.8 0.8 0 1.6 0 2.4-0.2s1.5-0.4 2.2-0.8 1.2-0.9 1.6-1.6 0.7-1.6 0.7-2.4c0-1-0.3-2.1-1-2.8-0.8-0.8-1.7-1.5-2.6-2.1-1.1-0.6-2.2-1.2-3.5-1.8-1.2-0.5-2.3-1.2-3.4-1.9-1-0.7-1.9-1.5-2.6-2.5s-1.1-2.2-1-3.5c0-1 0.2-1.9 0.6-2.8 0.4-0.8 0.9-1.5 1.6-2s1.5-0.9 2.3-1.2c0.9-0.3 1.8-0.4 2.8-0.3 1 0 1.9 0.2 2.8 0.5s1.7 0.7 2.4 1.2c0.2 0.2 0.5 0.3 0.9 0.3 0.4 0.1 0.8-0.1 1-0.4 0.3-0.3 0.5-0.7 0.6-1.1v2.8s0 1.9 0 2.8c-0.2-0.8-0.6-1.6-1.1-2.3s-1-1.3-1.7-1.8c-0.6-0.5-1.4-0.9-2.1-1.2-0.7-0.2-1.5-0.4-2.3-0.5z"/>
		<path class="st0" d="m316.6 70.6c-0.2 0.1-0.5 0.2-0.7 0.3-0.3 0.1-0.5 0.3-0.8 0.5-0.2 0.2-0.4 0.5-0.6 0.8s-0.2 0.7-0.2 1.1v14.1c0 3-0.7 5.2-2 6.7-1.6 1.6-3.7 2.4-5.9 2.2-1.5 0.1-3-0.2-4.4-0.8-1.1-0.5-2-1.2-2.7-2.1-0.7-0.8-1.1-1.8-1.4-2.9-0.2-1-0.4-2.1-0.4-3.2v-14.1c0-0.7-0.1-1.3-0.5-1.8-0.3-0.4-0.7-0.7-1.1-0.8h5c-0.5 0.1-0.9 0.4-1.1 0.8-0.4 0.5-0.5 1.2-0.5 1.8v14.1c0 1.3 0.2 2.5 0.6 3.7 0.3 1 0.9 1.8 1.6 2.6 0.6 0.7 1.4 1.2 2.3 1.5s1.8 0.5 2.7 0.5c1.2 0 2.4-0.2 3.5-0.6 0.9-0.4 1.7-0.9 2.3-1.7s1.1-1.6 1.3-2.6c0.3-1.1 0.4-2.2 0.4-3.4v-14.1c0-0.4-0.1-0.8-0.2-1.1s-0.3-0.5-0.6-0.8c-0.2-0.2-0.5-0.4-0.8-0.5s-0.5-0.2-0.7-0.3l4.9 0.1z"/>
		<path class="st0" d="m334.5 96-6.5-10h-5.8v7.4c0 0.6 0.1 1.3 0.5 1.8 0.3 0.4 0.7 0.6 1.1 0.8h-5c0.5-0.1 0.9-0.4 1.1-0.8 0.4-0.5 0.5-1.2 0.5-1.8v-20.2c0.1-0.7-0.1-1.3-0.5-1.8-0.3-0.4-0.7-0.7-1.1-0.8h8.3c1.5 0 3.1 0.2 4.5 0.7 1.1 0.4 2.1 1 3 1.8 0.7 0.7 1.3 1.5 1.6 2.5 0.3 0.9 0.5 1.8 0.5 2.8 0 0.8-0.1 1.5-0.4 2.3s-0.6 1.5-1.1 2.2c-0.6 0.7-1.3 1.4-2.1 1.9-1 0.6-2 1-3.1 1.2l5.5 8.5c0.3 0.4 0.6 0.7 1 1s0.8 0.5 1.3 0.7h-3.3zm-7.3-10.4c1 0 2-0.1 3-0.5 0.9-0.3 1.7-0.8 2.3-1.4 0.7-0.6 1.2-1.4 1.6-2.3 0.4-1 0.6-2.1 0.5-3.2 0-1-0.1-1.9-0.5-2.8-0.3-0.9-0.8-1.6-1.4-2.3s-1.4-1.2-2.3-1.6c-1-0.4-2.1-0.6-3.2-0.6h-5v14.6l5 0.1z"/>
		<path class="st0" d="m361.5 86.6c-0.4 0.5-0.5 1.2-0.5 1.8v7.8l-1-1.4c-0.2-0.3-0.5-0.5-0.9-0.6s-0.7 0-1.1 0.2c-1 0.5-2.1 1-3.2 1.3-1 0.3-2.1 0.5-3.2 0.5-1.7 0-3.4-0.3-4.9-1-1.5-0.6-2.9-1.6-4-2.7-5-5-5-13.2 0-18.2 1.1-1.1 2.5-2 4-2.7 1.6-0.7 3.2-1 4.9-1 0.8 0 1.6 0.1 2.3 0.2 0.8 0.1 1.5 0.3 2.2 0.5s1.4 0.4 2 0.8c0.6 0.3 1.1 0.6 1.6 1v2.9c-0.6-0.9-1.2-1.6-2-2.3-0.7-0.7-1.6-1.2-2.5-1.7-0.9-0.4-1.8-0.8-2.8-0.9-1-0.2-2-0.2-2.9 0-1.4 0.2-2.7 0.8-3.9 1.7s-2.2 2-2.9 3.3c-0.8 1.3-1.3 2.8-1.6 4.3-0.3 1.6-0.3 3.2 0 4.8s0.8 3.1 1.6 4.5c0.7 1.3 1.7 2.5 2.9 3.5 1.1 0.9 2.4 1.7 3.7 2.1s2.8 0.5 4.2 0.3c0.7-0.1 1.5-0.4 2.1-0.8 0.7-0.4 1.4-0.9 2-1.4 0.8-0.6 1.3-1.6 1.3-2.7v-2.2c0.1-0.7-0.1-1.3-0.5-1.8-0.3-0.4-0.7-0.7-1.1-0.8h5c-0.2 0.1-0.6 0.4-0.8 0.7z"/>
		<path class="st0" d="m375.8 95.6c0.7 0 1.4-0.1 2-0.4 0.5-0.2 1-0.5 1.4-0.9 0.4-0.3 0.7-0.7 1-1.1 0.2-0.4 0.4-0.7 0.6-1l-0.9 3.7h-14.7c0.5-0.1 0.9-0.4 1.1-0.8 0.4-0.5 0.5-1.2 0.5-1.8v-20.1c0.1-0.7-0.1-1.3-0.5-1.8-0.3-0.4-0.7-0.7-1.1-0.8h14.7l0.9 3.7c-0.1-0.3-0.3-0.6-0.6-1-0.6-0.9-1.4-1.6-2.4-2-0.6-0.3-1.3-0.4-2-0.4h-7.4v11.9h5.3c0.6 0.1 1.3-0.1 1.8-0.5 0.4-0.3 0.6-0.7 0.8-1.2v3.9c-0.1-0.5-0.4-0.9-0.8-1.2-0.5-0.4-1.2-0.5-1.8-0.5h-5.3v12.2h7.4z"/>
		<path class="st0" d="m398.9 96-6.5-10h-5.8v7.4c0 0.6 0.1 1.3 0.5 1.8 0.3 0.4 0.7 0.6 1.1 0.8h-5c0.5-0.1 0.9-0.4 1.1-0.8 0.4-0.5 0.5-1.2 0.5-1.8v-20.2c0.1-0.7-0.1-1.3-0.5-1.8-0.3-0.4-0.7-0.7-1.1-0.8h8.3c1.5 0 3.1 0.2 4.5 0.7 1.1 0.4 2.1 1 3 1.8 0.7 0.7 1.3 1.5 1.6 2.5 0.3 0.9 0.5 1.8 0.5 2.8 0 0.8-0.1 1.5-0.4 2.3s-0.6 1.5-1.1 2.2c-0.6 0.7-1.3 1.4-2.1 1.9-1 0.6-2.1 1-3.2 1.2l5.5 8.5c0.3 0.4 0.6 0.7 1 1s0.8 0.5 1.3 0.7l-3.2-0.2zm-7.3-10.4c1 0 2-0.2 3-0.5 0.9-0.3 1.7-0.8 2.4-1.4s1.2-1.4 1.5-2.3c0.4-1 0.6-2.1 0.6-3.2 0-1-0.2-1.9-0.5-2.8s-0.8-1.6-1.4-2.3-1.4-1.2-2.3-1.6c-1-0.4-2.1-0.6-3.3-0.6h-5v14.6l5 0.1z"/>
		<path class="st0" d="m421.1 70.6c-0.6 0.2-1.2 0.6-1.6 1.1-0.7 0.6-1.2 1.3-1.6 2.2l-5.3 10.5v9.1c0 0.6 0.2 1.3 0.5 1.8 0.3 0.4 0.7 0.6 1.1 0.8h-5c0.5-0.1 0.9-0.4 1.1-0.8 0.4-0.5 0.5-1.2 0.5-1.8v-8.5l-5.9-11.5c-0.3-0.7-0.7-1.3-1.2-1.8-0.4-0.4-0.9-0.8-1.4-1h5c-0.4 0.2-0.7 0.6-0.8 1.1-0.1 0.6 0.1 1.2 0.4 1.7l5.4 10.5 4.9-9.6c0.3-0.5 0.4-1 0.5-1.5 0-0.4 0-0.8-0.2-1.2-0.1-0.3-0.3-0.6-0.6-0.8-0.2-0.2-0.4-0.3-0.7-0.4l4.9 0.1z"/>
		<path class="st0" d="m42.4 73c-2.8 0.4-5.7 0.6-8.5 0.6-3.6 0-7.2-0.5-10.7-1.4-3.6-0.9-6.9-2.4-10-4.4s-5.6-4.7-7.5-7.9c-2.1-3.5-3.1-7.5-3-11.6 0-3.6 0.6-7.2 1.9-10.5 1.2-3 3-5.7 5.3-8 2.3-2.2 5-4 8-5.1 3.2-1.2 6.5-1.8 9.9-1.8v25.9c0.1 1.4-0.3 2.8-1 3.9-0.6 0.8-1.4 1.4-2.4 1.8h10.4c-0.9-0.4-1.7-1-2.3-1.7-0.7-1.1-1.1-2.5-1-3.8v-26.2c1.9 0 3.7 0.2 5.6 0.6 2 0.4 4 1.2 5.9 2.1 1.9 1 3.7 2.3 5.2 3.8 1.6 1.6 3 3.5 3.9 5.6l0.8-0.5c-1-2-2.3-3.9-3.9-5.5-1.6-1.5-3.3-2.9-5.2-4s-3.9-1.9-6-2.5c-2-0.6-4.1-0.8-6.1-0.9v-15.1c-0.1-1.4 0.2-2.7 0.9-3.9 0.6-0.8 1.4-1.4 2.4-1.7h-10.5c1 0.3 1.8 0.9 2.4 1.7 0.7 1.2 1.1 2.5 1 3.9v15.2c-3.8 0-7.7 0.7-11.2 2.1-6.7 2.7-12 7.9-14.6 14.5-1.4 3.4-2.1 7.1-2.1 10.8 0 3.4 0.8 6.8 2.4 9.8 1.6 3.1 3.9 5.8 6.6 8 3.1 2.4 6.5 4.2 10.2 5.4 4.2 1.4 8.7 2.1 13.2 2 3.3 0 6.4-0.1 9.3-0.4 0.2-0.2 0.4-0.5 0.7-0.8z"/>
		<path class="st0" d="m78.4 91.3c0.1 0.3 0.1 0.6 0.1 0.9v0.9c0.1 4-0.6 8-2.2 11.7-2.5 5.8-7.3 10.3-13.3 12.5-2.7 1-5.5 1.6-8.3 1.9h-3.3c-1.1 0-2.2-0.2-3.2-0.5-3.1-0.5-6.1-1.5-9-2.9-2.6-1.4-5-3.2-7-5.4s-3.6-4.7-4.6-7.4c-1.1-2.9-1.7-5.9-1.6-9-0.1-3.5 0.6-7 2-10.2 1.3-2.6 3.1-4.9 5.3-6.8 2.1-1.7 4.5-3 7.1-3.8 2.5-0.7 5-1.1 7.6-1.1h1.5s1.1 0 1.6 0l-0.1 0.4h-0.8s-0.5 0-0.8 0c-6-0.2-11.8 2.5-15.4 7.3-1.7 2.2-2.9 4.7-3.7 7.3s-1.2 5.3-1.2 8c-0.1 3.2 0.6 6.5 1.8 9.4 1.2 2.7 2.9 5.1 5 7.1 4.2 3.9 9.8 6.1 15.5 6.1h3.1c3.2-0.3 6.2-1.2 9-2.7 4.8-2.6 8.4-7 9.9-12.2 0.8-2.6 1.2-5.3 1.2-8v-1.6c0-0.3-0.1-0.5-0.1-0.8v-0.8c-0.4-2.9-1.4-5.7-2.8-8.3-1.5-2.7-3.3-5.2-5.3-7.6-2.1-2.4-4.3-4.8-6.7-7.1s-4.7-4.6-6.8-6.9c-0.8-0.9-1.8-1.9-2.9-3.1-1.1-1.3-2.1-2.6-3-4-1-1.4-1.8-3-2.4-4.6-0.7-1.6-1-3.2-1-4.9-0.1-1.8 0.3-3.7 1.1-5.4 0.6-1.4 1.6-2.5 2.8-3.5 1.2-0.9 2.5-1.5 3.9-1.9s2.8-0.5 4.2-0.5c1.1 0 2.2 0.1 3.3 0.4 1.2 0.3 2.3 0.6 3.4 0.9s2.1 0.7 3.1 0.9c0.7 0.2 1.5 0.4 2.3 0.4s1.5-0.4 1.9-1.1v11.9c-0.3-1.5-0.8-2.9-1.6-4.2-0.8-1.5-1.8-2.9-2.9-4.1-1.2-1.3-2.7-2.3-4.2-3.1-1.6-0.8-3.5-1.2-5.3-1.2-3.5 0-6.2 0.9-8.1 2.8-1.8 1.9-2.8 4.4-2.8 7.1 0 1.6 0.3 3.1 1 4.5s1.5 2.8 2.5 4 2.1 2.4 3.3 3.5l3.5 3.2c1.8 1.5 4 3.3 6.7 5.4 2.7 2.2 5.3 4.6 7.7 7.1 2.5 2.6 4.6 5.6 6.4 8.7 1.7 3.3 2.6 6.8 2.6 10.4z"/>
	

</svg>
